<svg version="1.2" baseProfile="tiny-ps" xmlns="http://www.w3.org/2000/svg" viewBox="0 0 166 50" width="166" height="50">
	<title>image</title>
	<style>
		tspan { white-space:pre }
		.shp0 { fill: none;stroke: #ffffff;stroke-width: 2.5 } 
	</style>
	<path id="Camada 1" class="shp0" d="M14 13L17 13L19 15L21 17L22 18L22 20L20 20L17 19L15 20L13 21L13 23L14 25L16 26L18 26L20 25L21 23L22 21L24 22L26 23L27 24L28 25L29 26L30 27L31 28L31 29L30 30L28 31L26 32L24 33L20 33L16 33L13 32L11 30L9 28L7 25L7 21L8 19L9 16L12 14L14 13Z" />
	<path id="Forma 1" class="shp0" d="M32 28L34 26L35 25L33 23L32 21L31 19L32 16L35 16L37 18L37 20L36 22L35 24L37 26L40 27L64 27L66 29L68 30L67 32L65 33L63 34L61 35L59 36L45 36L43 35L41 34L39 33L37 32L35 31L33 30L32 28Z" />
	<path id="Forma 2" class="shp0" d="M68 31L68 30L69 29L72 25L74 25L77 29L77 30L77 31L76 32L74 34L74 35L74 36L75 38L76 40L76 44L75 46L74 46L72 46L70 43L70 40L71 39L72 37L73 35L72 33L71 32L70 31L70 29L68 31Z" />
	<path id="Forma 3" class="shp0" d="M81 28L82 27L84 27L86 27L106 27L110 25L110 23L109 22L109 17L112 15L113 15L114 16L115 18L115 21L113 23L111 24L113 26L114 28L112 30L110 31L107 33L104 34L102 35L100 36L98 36L87 36L85 35L83 34L81 33L79 32L78 30L81 28Z" />
	<path id="Forma 4" class="shp0" d="M115 28L118 25L121 23L124 21L124 18L125 16L128 14L129 13L133 13L135 15L137 16L138 18L139 19L139 25L139 26L137 28L136 30L134 31L132 33L124 33L121 33L119 32L118 31L116 31L115 28Z" />
	<path id="Forma 5" class="shp0" d="M124 20L125 19L126 19L132 19L133 21L134 23L133 25L131 26L127 26L125 24L124 22L124 20Z" />
</svg>