<svg version="1.2" baseProfile="tiny-ps" xmlns="http://www.w3.org/2000/svg" viewBox="0 0 177 186" width="177" height="186">
	<title>image</title>
	<style>
		tspan { white-space:pre }
		.shp0 { fill: none;stroke: #8fd3e8;stroke-width: 4.38 } 
		.shp1 { fill: #8fd3e8 } 
		.shp2 { fill: #8fd3e8;stroke: #8fd3e8;stroke-width: 4.38 } 
	</style>
	<path id="Camada 1" class="shp0" d="M41 31L50 35L56 42L60 48L62 59L63 67L116 66L116 62L119 51L123 43L127 37L134 32L144 30L148 30L147 147L146 154L138 163L127 168L69 168L55 167L46 167L41 164L37 162L35 160L33 157L31 151L31 30L41 31Z" />
	<path id="Forma 1" class="shp1" d="M49 127L50 124L52 122L57 122L59 124L59 126L59 127L59 129L57 132L54 132L51 131L49 127Z" />
	<path id="Forma 2" class="shp2" d="M90 158C90 158 88.88 157.01 88 157C87.13 156.99 87 156 87 156L84 154L81 151L78 147L77 143L78 139L81 137L84 136L86 137L88 138L90 140L91 138L93 137L95 136L97 137L100 138L102 140L102 146L98 151L94 155L91 157L89 157L89 166" />
	<path id="Camada 2" fill-rule="evenodd" class="shp2" d="M110 116L120 109L130 109L136 113L141 119L142 123L142 131L140 136L137 141L129 145L120 145L115 143L111 139L107 134L106 127L107 120L110 116ZM117 128L118 131L120 134L123 135L126 135L128 134L132 130L132 127L131 124L128 121L124 120L120 122L117 128Z" />
</svg>